<svg width="74" height="67" viewBox="0 0 74 67" fill="none" xmlns="http://www.w3.org/2000/svg">
<path d="M12.2782 60.3C12.2782 63.4567 9.74486 66 6.63908 66C3.53329 66 1 63.4567 1 60.3C1 57.1434 3.53329 54.6 6.63908 54.6C9.74486 54.6 12.2782 57.1434 12.2782 60.3Z" fill="white" stroke="#ea7822" stroke-width="2"/>
<path d="M72.0321 60.3C72.0321 63.4567 69.4988 66 66.393 66C63.2872 66 60.7539 63.4567 60.7539 60.3C60.7539 57.1434 63.2872 54.6 66.393 54.6C69.4988 54.6 72.0321 57.1434 72.0321 60.3Z" fill="white" stroke="#ea7822" stroke-width="2"/>
<path d="M42.1532 60.3C42.1532 63.4567 39.6199 66 36.5141 66C33.4083 66 30.875 63.4567 30.875 60.3C30.875 57.1434 33.4083 54.6 36.5141 54.6C39.6199 54.6 42.1532 57.1434 42.1532 60.3Z" fill="white" stroke="#ea7822" stroke-width="2"/>
<path d="M37.2188 9.34303C36.8283 8.9525 36.1951 8.9525 35.8046 9.34303L29.4407 15.707C29.0501 16.0975 29.0501 16.7307 29.4407 17.1212C29.8312 17.5117 30.4643 17.5117 30.8549 17.1212L36.5117 11.4643L42.1686 17.1212C42.5591 17.5117 43.1923 17.5117 43.5828 17.1212C43.9733 16.7307 43.9733 16.0975 43.5828 15.707L37.2188 9.34303ZM37.5117 53.6L37.5117 10.0501L35.5117 10.0501L35.5117 53.6L37.5117 53.6Z" fill="#ea7822"/>
<path d="M6.64062 53.9349V33.165H66.0604V53.9349" stroke="#ea7822" stroke-width="2"/>
<rect x="16.9297" y="1" width="39.8262" height="23.4599" stroke="#ea7822" stroke-width="2" stroke-dasharray="4 4"/>
</svg>
