<svg width="71" height="62" viewBox="0 0 71 62" fill="none" xmlns="http://www.w3.org/2000/svg">
<path d="M55.1656 28.2606C55.1656 39.1342 46.3508 47.9489 35.4773 47.9489C24.6038 47.9489 15.7891 39.1342 15.7891 28.2606C15.7891 17.3871 24.6038 8.57239 35.4773 8.57239" stroke="#ea7822" stroke-dasharray="4 4"/>
<circle cx="35.3275" cy="28.1983" r="3.92519" fill="#ea7822"/>
<path d="M35.4716 55.5213C50.5272 55.5213 62.7322 43.3163 62.7322 28.2606C62.7322 25.0745 62.1856 22.016 61.1811 19.1738C60.7649 17.9965 60.2702 16.8563 59.7033 15.7595M13.8289 44.8381C10.3052 40.2447 8.21094 34.4972 8.21094 28.2606C8.21094 13.205 20.4159 1 35.4716 1C39.6739 1 43.6541 1.95085 47.2088 3.64914" stroke="#ea7822" stroke-width="2"/>
<path d="M42.2719 21.8577L53.2476 18.2707L44.6533 10.5589L42.2719 21.8577ZM58.2049 2.60399L47.5383 14.4912L49.0269 15.8269L59.6935 3.93971L58.2049 2.60399Z" fill="#ea7822"/>
<path d="M-8.74204e-08 55.5L35.6286 55.5" stroke="#ea7822" stroke-width="2"/>
<path d="M70.6521 55.3962L60.6521 49.6227V61.1697L70.6521 55.3962ZM51.3281 56.3962H61.6521V54.3962H51.3281V56.3962Z" fill="#ea7822"/>
</svg>
