<svg width="63" height="58" viewBox="0 0 63 58" fill="none" xmlns="http://www.w3.org/2000/svg">
<path d="M13.2403 31.9352L26.7614 18.4141L37.0877 28.7403L50.2665 15.5615" stroke="#ea7822" stroke-width="2"/>
<path fill-rule="evenodd" clip-rule="evenodd" d="M32.9425 48.3031L33.0039 48.3043L33.0654 48.3062L33.1265 48.3089L33.1877 48.3123L33.2485 48.3164L33.3093 48.3214L33.3695 48.327L33.4298 48.3334L33.49 48.3405L33.5499 48.3483L33.6096 48.357L33.669 48.3663L33.7282 48.3763L33.7873 48.387L33.8458 48.3984L33.9042 48.4105L33.9626 48.4233L34.0204 48.4368L34.0782 48.4511L34.1355 48.4659L34.1927 48.4815L34.2494 48.4977L34.306 48.5146L34.3623 48.5321L34.4184 48.5503L34.4738 48.5692L34.5293 48.5887L34.5844 48.6089L34.639 48.6296L34.6932 48.6511L34.7474 48.6731L34.801 48.6958L34.8544 48.7191L34.9074 48.743L34.9599 48.7675L35.0123 48.7925L35.0642 48.8183L35.1158 48.8446L35.167 48.8714L35.2176 48.8989L35.268 48.9269L35.318 48.9555L35.3678 48.9847L35.4169 49.0145L35.4658 49.0448L35.514 49.0756L35.5622 49.1071L35.6096 49.139L35.657 49.1715L35.7037 49.2046L35.7498 49.2381L35.796 49.2722L35.8412 49.3068L35.8862 49.3419L35.9309 49.3775L35.9749 49.4137L36.0186 49.4503L36.0618 49.4875L36.1046 49.5251L36.1469 49.5633L36.1886 49.6019L36.2299 49.6411L36.271 49.6807L36.3111 49.7207L36.351 49.7612L36.3906 49.8023L36.4295 49.8437L36.4678 49.8855L36.5056 49.928L36.543 49.9708L36.5799 50.0141L36.6162 50.0578L36.6522 50.1019L36.6872 50.1465L36.722 50.1915L36.7562 50.237L36.79 50.2827L36.823 50.3291L36.8556 50.3757L36.8877 50.4227L36.9191 50.4703L36.95 50.5182L36.9803 50.5664L37.0102 50.6151L37.0394 50.6642L37.0678 50.7136L37.096 50.7634L37.1232 50.8136L37.1502 50.8642L37.1762 50.9151L37.2021 50.9663L37.227 51.0179L37.2512 51.0699L37.2749 51.1222L37.2982 51.1749L37.3207 51.2279L37.3423 51.2811L37.3636 51.3348L37.3842 51.3887L37.404 51.443L37.4232 51.4976L37.4418 51.5525L37.4598 51.6076L37.4769 51.6631L37.4936 51.7188L37.5095 51.7749L37.5245 51.8312L37.5389 51.8878L37.5526 51.9446L37.5658 52.0017L37.5782 52.0591L37.5898 52.1167L37.6009 52.1745L37.6111 52.2326L37.6204 52.2908L37.629 52.3493L37.6372 52.408L37.6444 52.467L37.651 52.5261L37.6566 52.5854L37.6618 52.6449L37.6659 52.7046L37.6695 52.7645L37.6722 52.8244L37.674 52.8847L37.6752 52.945L37.6758 53.0055L37.6752 53.0659L37.674 53.1263L37.6722 53.1864L37.6695 53.2464L37.6659 53.3063L37.6618 53.3659L37.6566 53.4255L37.651 53.4847L37.6444 53.5439L37.6372 53.6028L37.629 53.6615L37.6204 53.72L37.6111 53.7783L37.6009 53.8363L37.5898 53.8942L37.5782 53.9518L37.5658 54.0091L37.5526 54.0663L37.5389 54.1231L37.5245 54.1797L37.5095 54.2359L37.4936 54.292L37.4769 54.3478L37.4598 54.4032L37.4418 54.4584L37.4232 54.5133L37.404 54.5679L37.3842 54.6221L37.3636 54.6761L37.3423 54.7297L37.3207 54.783L37.2982 54.836L37.2749 54.8887L37.2512 54.941L37.227 54.9929L37.2021 55.0445L37.1762 55.0959L37.1502 55.1467L37.1232 55.1972L37.096 55.2475L37.0678 55.2973L37.0394 55.3467L37.0102 55.3958L36.9803 55.4444L36.95 55.4927L36.9191 55.5406L36.8877 55.588L36.8556 55.6351L36.823 55.6818L36.79 55.7281L36.7562 55.7739L36.722 55.8193L36.6872 55.8643L36.6522 55.909L36.6162 55.9531L36.5799 55.9968L36.543 56.0401L36.5056 56.0829L36.4678 56.1253L36.4295 56.1671L36.3906 56.2087L36.351 56.2496L36.3111 56.2902L36.271 56.3303L36.2299 56.3698L36.1886 56.409L36.1469 56.4476L36.1046 56.4857L36.0618 56.5234L36.0186 56.5605L35.9749 56.5971L35.9309 56.6333L35.8865 56.6689L35.8412 56.7041L35.796 56.7387L35.7498 56.7728L35.7037 56.8063L35.657 56.8394L35.6096 56.8719L35.5622 56.9038L35.5143 56.9352L35.4658 56.9661L35.4169 56.9964L35.3678 57.0261L35.318 57.0553L35.268 57.0839L35.2176 57.112L35.167 57.1395L35.1158 57.1663L35.0642 57.1927L35.0123 57.2183L34.9599 57.2435L34.9074 57.2679L34.8544 57.2918L34.801 57.3151L34.7474 57.3378L34.6932 57.3599L34.639 57.3812L34.5844 57.402L34.5293 57.4222L34.4738 57.4417L34.4184 57.4606L34.3623 57.4787L34.306 57.4963L34.2497 57.5131L34.1927 57.5294L34.1355 57.545L34.0782 57.5599L34.0204 57.574L33.9626 57.5875L33.9042 57.6003L33.8458 57.6125L33.7873 57.6239L33.7282 57.6346L33.669 57.6447L33.6096 57.6539L33.5499 57.6625L33.49 57.6703L33.4298 57.6775L33.3695 57.6839L33.309 57.6895L33.2485 57.6944L33.1877 57.6986L33.1265 57.702L33.0654 57.7047L33.0039 57.7066L32.9425 57.7077L32.8811 57.7081L32.8194 57.7077L32.7579 57.7066L32.6965 57.7047L32.6354 57.702L32.5742 57.6986L32.5134 57.6944L32.4529 57.6895L32.3923 57.6839L32.3321 57.6775L32.2718 57.6703L32.2119 57.6625L32.1523 57.6539L32.093 57.6447L32.0336 57.6346L31.9746 57.6239L31.9162 57.6125L31.8577 57.6003L31.7993 57.5875L31.7414 57.574L31.6836 57.5599L31.6263 57.545L31.5691 57.5294L31.5122 57.5131L31.4558 57.4963L31.3995 57.4787L31.3434 57.4606L31.288 57.4417L31.2326 57.4222L31.1774 57.402L31.1229 57.3812L31.0686 57.3599L31.0144 57.3378L30.9608 57.3151L30.9074 57.2918L30.8544 57.2679L30.802 57.2435L30.7495 57.2183L30.6977 57.1927L30.6462 57.1663L30.5949 57.1395L30.5442 57.112L30.4939 57.0839L30.4438 57.0553L30.3941 57.0261L30.345 56.9964L30.2961 56.9661L30.2476 56.9352L30.1996 56.9038L30.1522 56.8719L30.105 56.8394L30.0582 56.8063L30.012 56.7728L29.9658 56.7387L29.9206 56.7041L29.8754 56.6689L29.831 56.6333L29.787 56.5971L29.7432 56.5605L29.7001 56.5234L29.6572 56.4857L29.615 56.4476L29.5733 56.409L29.5319 56.3698L29.4909 56.3303L29.4507 56.2902L29.4109 56.2496L29.3714 56.2087L29.3324 56.1671L29.294 56.1253L29.2562 56.0829L29.2188 56.0401L29.1819 55.9968L29.1457 55.9531L29.1097 55.909L29.0746 55.8643L29.0399 55.8193L29.0058 55.7739L28.9718 55.7281L28.9389 55.6818L28.9062 55.6351L28.8742 55.588L28.8427 55.5406L28.8118 55.4927L28.7816 55.4444L28.7516 55.3958L28.7226 55.3467L28.6941 55.2973L28.6659 55.2475L28.6386 55.1972L28.6117 55.1467L28.5856 55.0959L28.5598 55.0445L28.535 54.9929L28.5106 54.941L28.487 54.8887L28.4636 54.836L28.4411 54.783L28.4196 54.7297L28.3983 54.6761L28.3776 54.6221L28.3578 54.5679L28.3386 54.5133L28.3201 54.4584L28.3021 54.4032L28.285 54.3478L28.2682 54.292L28.2526 54.2359L28.2374 54.1797L28.223 54.1231L28.2092 54.0663L28.196 54.0091L28.1838 53.9518L28.1721 53.8942L28.161 53.8363L28.1508 53.7783L28.1414 53.72L28.1328 53.6615L28.1247 53.6028L28.1175 53.5439L28.1109 53.4847L28.1052 53.4255L28.1002 53.3659L28.0959 53.3063L28.0923 53.2464L28.0896 53.1864L28.0878 53.1263L28.0866 53.0659L28.086 53.0055L28.0866 52.945L28.0878 52.8847L28.0896 52.8244L28.0923 52.7645L28.0959 52.7046L28.1002 52.6449L28.1052 52.5854L28.1109 52.5261L28.1175 52.467L28.1247 52.408L28.1328 52.3493L28.1414 52.2908L28.1508 52.2326L28.161 52.1745L28.1721 52.1167L28.1838 52.0591L28.196 52.0017L28.2092 51.9446L28.223 51.8878L28.2374 51.8312L28.2523 51.7749L28.2682 51.7188L28.285 51.6631L28.3021 51.6076L28.3201 51.5525L28.3386 51.4976L28.3578 51.443L28.3776 51.3887L28.3983 51.3348L28.4196 51.2811L28.4411 51.2279L28.4636 51.1749L28.487 51.1222L28.5106 51.0699L28.535 51.0179L28.5598 50.9663L28.5856 50.9151L28.6117 50.8642L28.6386 50.8136L28.6659 50.7634L28.6941 50.7136L28.7226 50.6642L28.7516 50.6151L28.7816 50.5664L28.8118 50.5182L28.8427 50.4703L28.8742 50.4227L28.9062 50.3757L28.9389 50.3291L28.9718 50.2827L29.0058 50.237L29.0399 50.1915L29.0746 50.1465L29.1097 50.1019L29.1457 50.0578L29.1819 50.0141L29.2188 49.9708L29.2562 49.928L29.294 49.8855L29.3324 49.8437L29.3714 49.8023L29.4109 49.7612L29.4507 49.7207L29.4909 49.6807L29.5319 49.6411L29.5733 49.6019L29.615 49.5633L29.6572 49.5251L29.7001 49.4875L29.7432 49.4503L29.787 49.4137L29.831 49.3775L29.8757 49.3419L29.9206 49.3068L29.9658 49.2722L30.012 49.2381L30.0582 49.2046L30.105 49.1715L30.1522 49.139L30.1996 49.1071L30.2478 49.0756L30.2961 49.0448L30.345 49.0145L30.3941 48.9847L30.4438 48.9555L30.4939 48.9269L30.5442 48.8989L30.5949 48.8714L30.6462 48.8446L30.6977 48.8183L30.7495 48.7925L30.802 48.7675L30.8544 48.743L30.9074 48.7191L30.9608 48.6958L31.0144 48.6731L31.0686 48.6511L31.1229 48.6296L31.1774 48.6089L31.2326 48.5887L31.288 48.5692L31.3434 48.5503L31.3995 48.5321L31.4558 48.5146L31.5125 48.4977L31.5691 48.4815L31.6263 48.4659L31.6836 48.4511L31.7414 48.4368L31.7993 48.4233L31.8577 48.4105L31.9162 48.3984L31.9746 48.387L32.0336 48.3763L32.093 48.3663L32.1523 48.357L32.2119 48.3483L32.2718 48.3405L32.3321 48.3334L32.3923 48.327L32.4526 48.3214L32.5134 48.3164L32.5742 48.3123L32.6354 48.3089L32.6965 48.3062L32.7579 48.3043L32.8194 48.3031L32.8811 48.3027L32.9425 48.3031ZM32.8494 50.6545L32.8183 50.6551L32.7874 50.6561L32.7565 50.6574L32.7259 50.6591L32.6954 50.6612L32.6648 50.6637L32.6345 50.6665L32.6043 50.6697L32.5743 50.6733L32.5443 50.6772L32.5147 50.6815L32.485 50.6861L32.4556 50.6911L32.4263 50.6965L32.3969 50.7021L32.3679 50.7081L32.3387 50.7145L32.31 50.7213L32.2815 50.7283L32.2531 50.7357L32.2246 50.7434L32.1961 50.7515L32.1683 50.7598L32.1401 50.7686L32.1125 50.7777L32.0847 50.787L32.0571 50.7967L32.0298 50.8067L32.0028 50.817L31.9755 50.8277L31.9489 50.8387L31.9222 50.85L31.8955 50.8616L31.8691 50.8735L31.8428 50.8857L31.8167 50.8982L31.791 50.911L31.7652 50.9241L31.7397 50.9376L31.7143 50.9513L31.6891 50.9653L31.6642 50.9796L31.6393 50.9942L31.6147 51.0091L31.5902 51.0242L31.5659 51.0397L31.5419 51.0554L31.5179 51.0715L31.4943 51.0877L31.4709 51.1043L31.4479 51.1212L31.4247 51.1383L31.402 51.1556L31.3792 51.1733L31.3571 51.1912L31.3348 51.2093L31.313 51.2277L31.2911 51.2464L31.2695 51.2653L31.2483 51.2845L31.2273 51.3039L31.2066 51.3236L31.1859 51.3435L31.1659 51.3637L31.1458 51.3841L31.126 51.4046L31.1062 51.4254L31.0871 51.4465L31.0682 51.4678L31.0493 51.4893L31.0307 51.5111L31.0124 51.5331L30.9944 51.5552L30.9767 51.5776L30.9594 51.6001L30.9423 51.6229L30.9252 51.646L30.9087 51.6692L30.8923 51.6925L30.8763 51.7161L30.8605 51.7399L30.8452 51.7639L30.8299 51.7881L30.8149 51.8124L30.8006 51.8369L30.7862 51.8616L30.7721 51.8865L30.7586 51.9115L30.7451 51.9367L30.7319 51.9621L30.7193 51.9877L30.7067 52.0134L30.6947 52.0393L30.6827 52.0654L30.6714 52.0916L30.6603 52.118L30.6492 52.1445L30.6387 52.1712L30.6285 52.198L30.6187 52.2249L30.6091 52.2521L30.5998 52.2793L30.5911 52.3068L30.5824 52.3343L30.5743 52.3621L30.5662 52.3898L30.5587 52.4178L30.5515 52.446L30.5447 52.4742L30.5383 52.5026L30.532 52.5311L30.5263 52.5598L30.521 52.5885L30.5159 52.6175L30.5111 52.6466L30.5066 52.6758L30.5027 52.7051L30.4991 52.7345L30.4958 52.7641L30.4927 52.7939L30.4904 52.8237L30.4883 52.8537L30.4865 52.8838L30.485 52.9141L30.4841 52.9445L30.4835 52.975V53.0057V53.0363L30.4841 53.0668L30.485 53.0972L30.4865 53.1274L30.4883 53.1576L30.4904 53.1875L30.4927 53.2173L30.4958 53.2471L30.4991 53.2767L30.5027 53.3061L30.5066 53.3355L30.5111 53.3647L30.5159 53.3937L30.521 53.4227L30.5263 53.4515L30.532 53.4801L30.5383 53.5086L30.5447 53.537L30.5515 53.5653L30.5587 53.5934L30.5662 53.6214L30.5743 53.6493L30.5824 53.6769L30.5911 53.7045L30.5998 53.732L30.6091 53.7592L30.6187 53.7863L30.6285 53.8133L30.6387 53.8401L30.6492 53.8668L30.6603 53.8933L30.6714 53.9197L30.6827 53.9458L30.6947 53.9719L30.7067 53.9978L30.7193 54.0236L30.7319 54.0491L30.7451 54.0745L30.7586 54.0997L30.7721 54.1248L30.7862 54.1497L30.8006 54.1744L30.8149 54.1989L30.8299 54.2233L30.8452 54.2473L30.8605 54.2713L30.8763 54.2951L30.8923 54.3187L30.9087 54.3421L30.9252 54.3653L30.942 54.3883L30.9594 54.4111L30.9767 54.4337L30.9944 54.4561L31.0124 54.4782L31.0307 54.5001L31.0493 54.5219L31.0682 54.5434L31.0871 54.5647L31.1062 54.5858L31.126 54.6066L31.1458 54.6273L31.1659 54.6477L31.1859 54.6677L31.2066 54.6877L31.2273 54.7073L31.2483 54.7267L31.2695 54.7459L31.2911 54.7649L31.313 54.7836L31.3348 54.8019L31.3571 54.8201L31.3792 54.8381L31.402 54.8557L31.4247 54.873L31.4479 54.8901L31.4709 54.9069L31.4943 54.9235L31.5179 54.9398L31.5419 54.9558L31.5659 54.9716L31.5902 54.987L31.6147 55.0021L31.6393 55.0171L31.6642 55.0317L31.6891 55.046L31.7143 55.06L31.7397 55.0737L31.7652 55.0872L31.791 55.1002L31.8167 55.1131L31.8428 55.1256L31.8691 55.1378L31.8955 55.1497L31.9222 55.1613L31.9486 55.1725L31.9755 55.1836L32.0028 55.1942L32.0298 55.2045L32.0574 55.2145L32.0847 55.2242L32.1122 55.2336L32.1401 55.2427L32.1683 55.2514L32.1964 55.2598L32.2246 55.2678L32.2527 55.2756L32.2812 55.2829L32.31 55.2901L32.3387 55.2967L32.3679 55.3031L32.3969 55.3092L32.4263 55.3149L32.4556 55.3201L32.485 55.3252L32.5147 55.3298L32.5443 55.3341L32.5743 55.338L32.6043 55.3416L32.6345 55.3447L32.6648 55.3476L32.6954 55.3501L32.7259 55.3521L32.7565 55.3538L32.7874 55.3552L32.8183 55.3561L32.8494 55.3568L32.8809 55.3569L32.912 55.3568L32.9432 55.3561L32.9741 55.3552L33.0049 55.3538L33.0355 55.3521L33.0661 55.3501L33.0967 55.3476L33.1269 55.3447L33.1571 55.3416L33.1871 55.338L33.2171 55.3341L33.2467 55.3298L33.2764 55.3252L33.3058 55.3201L33.3351 55.3149L33.3645 55.3092L33.3936 55.3031L33.4227 55.2967L33.4515 55.2901L33.4802 55.2829L33.5087 55.2756L33.5368 55.2678L33.565 55.2598L33.5932 55.2514L33.6214 55.2427L33.6492 55.2336L33.6768 55.2242L33.7041 55.2145L33.7316 55.2045L33.7586 55.1942L33.7859 55.1836L33.8128 55.1725L33.8392 55.1613L33.8659 55.1497L33.8923 55.1378L33.9187 55.1256L33.9447 55.1131L33.9705 55.1002L33.9963 55.0872L34.0217 55.0737L34.0472 55.06L34.0723 55.046L34.0972 55.0317L34.1221 55.0171L34.1467 55.0021L34.1712 54.987L34.1955 54.9716L34.2195 54.9558L34.2435 54.9398L34.2671 54.9235L34.2905 54.9069L34.3136 54.8901L34.3367 54.873L34.3595 54.8557L34.3822 54.8381L34.4044 54.8201L34.4266 54.8019L34.4484 54.7836L34.4703 54.7649L34.4919 54.7459L34.5131 54.7267L34.5342 54.7073L34.5548 54.6877L34.5755 54.6677L34.5956 54.6477L34.6157 54.6273L34.6355 54.6066L34.6552 54.5858L34.6744 54.5647L34.6933 54.5434L34.7122 54.5219L34.7307 54.5001L34.749 54.4782L34.767 54.4561L34.7847 54.4337L34.802 54.4111L34.8195 54.3883L34.8363 54.3653L34.8527 54.3421L34.8692 54.3187L34.8851 54.2951L34.901 54.2713L34.9163 54.2473L34.9315 54.2233L34.9465 54.1989L34.9609 54.1744L34.9753 54.1497L34.9894 54.1248L35.0028 54.0997L35.0163 54.0745L35.0295 54.0491L35.0421 54.0236L35.0547 53.9978L35.0667 53.9719L35.0787 53.9458L35.09 53.9197L35.1011 53.8933L35.1122 53.8668L35.1227 53.8401L35.1329 53.8133L35.1428 53.7863L35.1523 53.7592L35.1617 53.732L35.1703 53.7045L35.1791 53.6769L35.1871 53.6493L35.1952 53.6214L35.2027 53.5934L35.2099 53.5653L35.2168 53.537L35.2231 53.5086L35.2294 53.4801L35.2351 53.4515L35.2405 53.4227L35.2455 53.3937L35.2503 53.3647L35.2549 53.3355L35.2587 53.3061L35.2623 53.2767L35.2656 53.2471L35.2687 53.2173L35.2711 53.1875L35.2731 53.1576L35.2749 53.1274L35.2764 53.0972L35.2773 53.0668L35.2779 53.0363V53.0057V52.975L35.2773 52.9445L35.2764 52.9141L35.2749 52.8838L35.2731 52.8537L35.2711 52.8237L35.2687 52.7939L35.2656 52.7641L35.2623 52.7345L35.2587 52.7051L35.2549 52.6758L35.2503 52.6466L35.2455 52.6175L35.2405 52.5885L35.2351 52.5598L35.2294 52.5311L35.2231 52.5026L35.2168 52.4742L35.2099 52.446L35.2027 52.4178L35.1952 52.3898L35.1871 52.3621L35.1791 52.3343L35.1703 52.3068L35.1617 52.2793L35.1523 52.2521L35.1428 52.2249L35.1329 52.198L35.1227 52.1712L35.1122 52.1445L35.1011 52.118L35.09 52.0916L35.0787 52.0654L35.0667 52.0393L35.0547 52.0134L35.0421 51.9877L35.0295 51.9621L35.0163 51.9367L35.0028 51.9115L34.9894 51.8865L34.9753 51.8616L34.9609 51.8369L34.9465 51.8124L34.9315 51.7881L34.9163 51.7639L34.901 51.7399L34.8851 51.7161L34.8692 51.6925L34.8527 51.6692L34.8363 51.646L34.8191 51.6229L34.802 51.6001L34.7847 51.5776L34.767 51.5552L34.749 51.5331L34.7307 51.5111L34.7122 51.4893L34.6933 51.4678L34.6744 51.4465L34.6552 51.4254L34.6355 51.4046L34.6157 51.3841L34.5956 51.3637L34.5755 51.3435L34.5548 51.3236L34.5342 51.3039L34.5131 51.2845L34.4919 51.2653L34.4703 51.2464L34.4484 51.2277L34.4266 51.2093L34.4044 51.1912L34.3822 51.1733L34.3595 51.1556L34.3367 51.1383L34.3136 51.1212L34.2905 51.1043L34.2671 51.0877L34.2435 51.0715L34.2195 51.0554L34.1955 51.0397L34.1712 51.0242L34.1467 51.0091L34.1221 50.9942L34.0972 50.9796L34.0723 50.9653L34.0472 50.9513L34.0217 50.9376L33.9963 50.9241L33.9705 50.911L33.9447 50.8982L33.9187 50.8857L33.8923 50.8735L33.8659 50.8616L33.8392 50.85L33.8126 50.8387L33.7859 50.8277L33.7586 50.817L33.7316 50.8067L33.7043 50.7967L33.6768 50.787L33.6489 50.7777L33.6214 50.7686L33.5932 50.7598L33.5653 50.7515L33.5368 50.7434L33.5083 50.7357L33.4799 50.7283L33.4515 50.7213L33.4227 50.7145L33.3936 50.7081L33.3645 50.7021L33.3351 50.6965L33.3058 50.6911L33.2764 50.6861L33.2467 50.6815L33.2171 50.6772L33.1871 50.6733L33.1571 50.6697L33.1269 50.6665L33.0967 50.6637L33.0661 50.6612L33.0355 50.6591L33.0049 50.6574L32.9741 50.6561L32.9432 50.6551L32.912 50.6545L32.8809 50.6543L32.8494 50.6545Z" fill="#ea7822"/>
<path fill-rule="evenodd" clip-rule="evenodd" d="M31.5762 50.2432H34.2162V41.7773H31.5762V50.2432Z" fill="#ea7822"/>
<path fill-rule="evenodd" clip-rule="evenodd" d="M4.35358 39.4643C4.35358 41.2316 5.74613 42.6643 7.46386 42.6643H56.2433C57.961 42.6643 59.3536 41.2316 59.3536 39.4643V3.98047H4.35358V39.4643Z" stroke="#ea7822" stroke-width="2"/>
<path fill-rule="evenodd" clip-rule="evenodd" d="M27.1304 15.4434C28.9828 15.4434 30.4872 16.9189 30.4872 18.7356C30.4872 20.5527 28.9828 22.0279 27.1304 22.0279C25.2777 22.0279 23.7735 20.5527 23.7735 18.7356C23.7735 16.9189 25.2777 15.4434 27.1304 15.4434Z" fill="#ea7822"/>
<path fill-rule="evenodd" clip-rule="evenodd" d="M37.6773 24.8467C39.5297 24.8467 41.0341 26.3222 41.0341 28.1389C41.0341 29.956 39.5297 31.4312 37.6773 31.4312C35.8245 31.4312 34.3204 29.956 34.3204 28.1389C34.3204 26.3222 35.8245 24.8467 37.6773 24.8467Z" fill="#ea7822"/>
<path fill-rule="evenodd" clip-rule="evenodd" d="M50.1459 12.6152C51.9983 12.6152 53.5027 14.0908 53.5027 15.9076C53.5027 17.7246 51.9983 19.1998 50.1459 19.1998C48.2932 19.1998 46.7891 17.7246 46.7891 15.9076C46.7891 14.0908 48.2932 12.6152 50.1459 12.6152Z" fill="#ea7822"/>
<path fill-rule="evenodd" clip-rule="evenodd" d="M13.6986 28.6055C15.5512 28.6055 17.0555 30.081 17.0555 31.8978C17.0555 33.7148 15.5512 35.19 13.6986 35.19C11.8459 35.19 10.3419 33.7148 10.3419 31.8978C10.3419 30.081 11.8459 28.6055 13.6986 28.6055Z" fill="#ea7822"/>
<path fill-rule="evenodd" clip-rule="evenodd" d="M50.1485 34.5365H52.7885V31.8965H50.1485V34.5365Z" fill="#ea7822"/>
<path fill-rule="evenodd" clip-rule="evenodd" d="M10.3424 16.1996H12.9824V13.5596H10.3424V16.1996Z" fill="#ea7822"/>
<rect x="0.862305" y="0.612305" width="62" height="4.70099" fill="#ea7822"/>
</svg>
