<svg width="78" height="78" viewBox="0 0 78 78" fill="none" xmlns="http://www.w3.org/2000/svg">
<path d="M33.6406 31.4043L25.2794 39.0054L33.6406 46.6066" stroke="#ea7822" stroke-width="1.80096"/>
<path d="M46.6367 31.4043L54.998 39.0054L46.6367 46.6066" stroke="#ea7822" stroke-width="1.80096"/>
<line x1="43.2324" y1="31.3337" x2="37.5315" y2="46.916" stroke="#ea7822" stroke-width="1.80096"/>
<path d="M58.5 19.5L53.7407 8.97943L47.0093 18.3614L58.5 19.5ZM66.4209 41.9403L67.4153 42.0463L66.4209 41.9403ZM57.7929 57.7929C47.4139 68.1719 30.5861 68.1719 20.2071 57.7929L18.7929 59.2071C29.953 70.3672 48.047 70.3672 59.2071 59.2071L57.7929 57.7929ZM20.2071 57.7929C9.82808 47.4139 9.82808 30.5861 20.2071 20.2071L18.7929 18.7929C7.63282 29.953 7.63282 48.047 18.7929 59.2071L20.2071 57.7929ZM20.2071 20.2071C28.4682 11.946 40.8168 10.259 50.747 15.1515L51.631 13.3574C40.9558 8.0979 27.6779 9.90788 18.7929 18.7929L20.2071 20.2071ZM65.4266 41.8343C64.8051 47.6634 62.2613 53.3245 57.7929 57.7929L59.2071 59.2071C64.0104 54.4038 66.7472 48.3135 67.4153 42.0463L65.4266 41.8343ZM64.2734 30.759C65.4378 34.3402 65.8224 38.1208 65.4266 41.8343L67.4153 42.0463C67.8407 38.0555 67.4276 33.9919 66.1754 30.1406L64.2734 30.759Z" fill="#ea7822"/>
<line x1="20.2071" y1="59.207" x2="7.20711" y2="72.207" stroke="#ea7822" stroke-width="2"/>
<circle cx="39.0644" cy="39.0676" r="37.8378" stroke="#ea7822" stroke-width="2" stroke-dasharray="4 4"/>
</svg>
