<?xml version="1.0" encoding="utf-8"?>
<!DOCTYPE svg PUBLIC "-//W3C//DTD SVG 1.1//EN" "http://www.w3.org/Graphics/SVG/1.1/DTD/svg11.dtd">
<svg version="1.1" id="adaptive" xmlns="http://www.w3.org/2000/svg" xmlns:xlink="http://www.w3.org/1999/xlink" x="100%" y="100%"
	 width="100%" height="100%" viewBox="0 0 100 100" enable-background="new 0 0 100 100" xml:space="preserve">
<path fill="#4C626E" d="M98.139,100.071H1.563C0.7,100.071,0,99.369,0,98.509V1.563C0,0.7,0.7,0,1.563,0h96.576
	C99.002,0,99.7,0.7,99.7,1.563v96.94C99.7,99.369,99.002,100.071,98.139,100.071z M3.125,96.946h93.452V3.125H3.125V96.946z"/>
<path fill="#4C626E" d="M98.139,100.071H57.812c-0.863,0-1.563-0.702-1.563-1.563V57.834c0-0.86,0.699-1.563,1.563-1.563h40.327
	c0.863,0,1.562,0.702,1.562,1.563v40.675C99.7,99.369,99.002,100.071,98.139,100.071z M59.374,96.946h37.202v-37.55H59.374V96.946z"
	/>
<path fill="#4C626E" d="M98.139,100.071h-72.28c-0.862,0-1.563-0.702-1.563-1.563V25.86c0-0.863,0.701-1.563,1.563-1.563h72.28
	c0.863,0,1.562,0.699,1.562,1.563v72.648C99.7,99.369,99.002,100.071,98.139,100.071z M27.421,96.946h69.155V27.423H27.421V96.946
	L27.421,96.946z"/>
<path fill="#D13920" d="M80.139,68.139H65.04c-0.646,0-1.172-0.524-1.172-1.172v-3.644c0-0.646,0.525-1.171,1.172-1.171h15.099
	c0.646,0,1.171,0.524,1.171,1.171v3.644C81.31,67.614,80.785,68.139,80.139,68.139z M66.212,65.795h12.755v-1.3H66.212V65.795z"/>
<path fill="#D13920" d="M65.938,36.917h-33.02c-0.646,0-1.171-0.525-1.171-1.172v-3.646c0-0.646,0.525-1.172,1.171-1.172h33.02
	c0.646,0,1.171,0.526,1.171,1.172v3.646C67.108,36.392,66.584,36.917,65.938,36.917z M34.09,34.574h30.676v-1.303H34.09V34.574z"/>
<path fill="#D13920" d="M52.725,11.99H9.243c-0.647,0-1.172-0.525-1.172-1.171V7.169c0-0.647,0.525-1.172,1.172-1.172h43.482
	c0.646,0,1.172,0.525,1.172,1.172v3.649C53.896,11.465,53.371,11.99,52.725,11.99z M10.415,9.647h41.138V8.341H10.415V9.647z"/>
</svg>
