<?xml version="1.0" encoding="utf-8"?>
<!DOCTYPE svg PUBLIC "-//W3C//DTD SVG 1.1//EN" "http://www.w3.org/Graphics/SVG/1.1/DTD/svg11.dtd">
<svg version="1.1" id="calc" xmlns="http://www.w3.org/2000/svg" xmlns:xlink="http://www.w3.org/1999/xlink" x="100%" y="100%"
	 width="100%" height="100%" viewBox="0 0 100 100" enable-background="new 0 0 100 100" xml:space="preserve">
<g>
	<g>
		<path fill="#4C626E" d="M1.389,0L0,1.389v44.444l1.389,1.39h44.444l1.389-1.39V1.389L45.833,0H1.389L1.389,0z M44.444,44.444
			H2.778V2.778h41.667V44.444z"/>
		<path fill="#4C626E" d="M98.611,0H54.166l-1.389,1.389v44.445l1.389,1.389h44.445l1.389-1.39V1.389L98.611,0z M97.223,44.444
			H55.556V2.778h41.667V44.444z"/>
		<path fill="#4C626E" d="M1.389,52.777L0,54.166v44.445L1.389,100h44.444l1.389-1.389V54.166l-1.389-1.389H1.389z M44.444,97.223
			H2.778V55.556h41.667V97.223z"/>
		<path fill="#4C626E" d="M54.166,52.777l-1.389,1.389v44.445L54.166,100h44.445L100,98.611V54.166l-1.389-1.389H54.166z
			 M97.223,97.223H55.556V55.556h41.667V97.223z"/>
		<polygon fill="#D13920" points="22.222,37.5 25,37.5 25,25 39.583,25 39.583,22.222 25,22.222 25,9.722 22.222,9.722 
			22.222,22.222 7.639,22.222 7.639,25 22.222,25 		"/>
		<rect x="75" y="33.333" fill="#D13920" width="2.777" height="4.167"/>
		<rect x="75" y="9.722" fill="#D13920" width="2.777" height="4.167"/>
		<rect x="60.417" y="22.222" fill="#D13920" width="31.944" height="2.778"/>
		<path fill="#D13920" d="M31.705,63.836L17.958,90.225l-2.464-1.283l13.747-26.389L31.705,63.836z"/>
		<path fill="#D13920" d="M12.725,77.58h1.952c3.188,0,5.78-2.593,5.779-5.78v-3.919c0-3.188-2.592-5.781-5.779-5.781h-1.952
			c-3.188,0-5.78,2.594-5.78,5.781V71.8C6.945,74.987,9.538,77.58,12.725,77.58z M9.723,67.881c0-1.656,1.347-3.003,3.002-3.003
			h1.951c1.654,0,3.001,1.347,3.001,3.003V71.8c0,1.655-1.347,3.003-3.001,3.003h-1.951c-1.655,0-3.002-1.348-3.002-3.003V67.881z"
			/>
		<path fill="#D13920" d="M26.767,80.973v3.919c0,3.188,2.593,5.78,5.781,5.78h1.951c3.188,0,5.779-2.593,5.779-5.78v-3.919
			c0-3.188-2.592-5.781-5.779-5.781h-1.951C29.36,75.191,26.767,77.785,26.767,80.973z M29.545,80.973
			c0-1.656,1.347-3.004,3.002-3.004h1.951c1.654,0,3.001,1.348,3.001,3.004v3.919c0,1.655-1.347,3.003-3.001,3.003h-1.951
			c-1.655,0-3.002-1.348-3.002-3.003C29.544,84.892,29.544,80.973,29.545,80.973z"/>
		<rect x="60.417" y="70.834" fill="#D13920" width="31.944" height="2.777"/>
		<rect x="60.417" y="81.944" fill="#D13920" width="31.944" height="2.778"/>
	</g>
</g>
</svg>
