<?xml version="1.0" encoding="utf-8"?>
<!DOCTYPE svg PUBLIC "-//W3C//DTD SVG 1.1//EN" "http://www.w3.org/Graphics/SVG/1.1/DTD/svg11.dtd">
<svg version="1.1" id="checkmark" xmlns="http://www.w3.org/2000/svg" xmlns:xlink="http://www.w3.org/1999/xlink" x="100%" y="100%"
	 width="100%" height="100%" viewBox="0 0 100 100" enable-background="new 0 0 100 100" xml:space="preserve">
<g id="Checkbox-checked">
	<path fill="#D13920" d="M27.614,36.629c-0.429-0.787-1.416-1.08-2.202-0.652c-0.789,0.429-1.081,1.414-0.652,2.202l24.385,44.86
		c0.285,0.524,0.832,0.849,1.427,0.849c0.002,0,0.004,0,0.004,0c0.597-0.001,1.145-0.329,1.426-0.854l43.352-80.64
		c0.426-0.789,0.13-1.775-0.66-2.199c-0.787-0.425-1.773-0.13-2.199,0.662L50.564,78.85L27.614,36.629z"/>
	<path fill="#4C626E" d="M97.15,26.627c-0.889,0-1.609,0.721-1.609,1.609v46.77c0,12.008-9.77,21.777-21.777,21.777h-46.77
		c-12.008,0-21.777-9.77-21.777-21.777v-46.77c0-12.008,9.77-21.778,21.777-21.778h46.77c0.889,0,1.609-0.72,1.609-1.608
		s-0.721-1.608-1.609-1.608h-46.77C13.212,3.242,2,14.455,2,28.236v46.77C2,88.787,13.212,100,26.994,100h46.77
		c13.781,0,24.994-11.213,24.994-24.994v-46.77C98.758,27.348,98.038,26.627,97.15,26.627z"/>
</g>
</svg>
