<svg width="460" height="327" viewBox="0 0 460 327" fill="none" xmlns="http://www.w3.org/2000/svg">
<g clip-path="url(#clip0_959_2628)">
<path d="M499 -57H-38C-51.2548 -57 -62 -46.2548 -62 -33V303C-62 316.255 -51.2548 327 -38 327H499C512.255 327 523 316.255 523 303V-33C523 -46.2548 512.255 -57 499 -57Z" fill="white"/>
<path d="M230.458 0H27.5174C12.32 0 0 12.32 0 27.5174V531.086C0 546.283 12.32 558.603 27.5174 558.603H230.458C245.655 558.603 257.975 546.283 257.975 531.086V27.5174C257.975 12.32 245.655 0 230.458 0Z" fill="white"/>
<path d="M26.4134 35.9189L21.0625 41.2697L26.4134 46.6206" stroke="#94A2AB" stroke-width="2.0638" stroke-linecap="round" stroke-linejoin="round"/>
<path d="M171.983 37.1484H85.9909C83.7113 37.1484 81.8633 38.9964 81.8633 41.276C81.8633 43.5557 83.7113 45.4037 85.9909 45.4037H171.983C174.262 45.4037 176.11 43.5557 176.11 41.276C176.11 38.9964 174.262 37.1484 171.983 37.1484Z" fill="#94A2AB"/>
<path d="M0 77.0508H257.975V141.717H0V77.0508Z" fill="white"/>
<path d="M182.304 93.5625H22.7031C19.2837 93.5625 16.5117 96.3345 16.5117 99.7539C16.5117 103.173 19.2837 105.945 22.7031 105.945H182.304C185.724 105.945 188.496 103.173 188.496 99.7539C188.496 96.3345 185.724 93.5625 182.304 93.5625Z" fill="#94A2AB"/>
<path d="M123.829 116.945H20.6393C18.3597 116.945 16.5117 118.793 16.5117 121.073C16.5117 123.353 18.3597 125.201 20.6393 125.201H123.829C126.109 125.201 127.957 123.353 127.957 121.073C127.957 118.793 126.109 116.945 123.829 116.945Z" fill="#DFE6EC"/>
<path d="M0 277.926H257.975V454.037H0V277.926Z" fill="white"/>
<path d="M198.126 294.438H20.6393C18.3597 294.438 16.5117 296.286 16.5117 298.565C16.5117 300.845 18.3597 302.693 20.6393 302.693H198.126C200.406 302.693 202.254 300.845 202.254 298.565C202.254 296.286 200.406 294.438 198.126 294.438Z" fill="#DFE6EC"/>
<path d="M103.192 313.699H20.6393C18.3597 313.699 16.5117 315.547 16.5117 317.827C16.5117 320.106 18.3597 321.954 20.6393 321.954H103.192C105.471 321.954 107.319 320.106 107.319 317.827C107.319 315.547 105.471 313.699 103.192 313.699Z" fill="#DFE6EC"/>
<path d="M229.084 313.699H119.702C117.422 313.699 115.574 315.547 115.574 317.827C115.574 320.106 117.422 321.954 119.702 321.954H229.084C231.363 321.954 233.211 320.106 233.211 317.827C233.211 315.547 231.363 313.699 229.084 313.699Z" fill="#DFE6EC"/>
<path d="M0 148.594H257.975V266.919H0V148.594Z" fill="white"/>
<path d="M198.126 165.105H20.6393C18.3597 165.105 16.5117 166.953 16.5117 169.233C16.5117 171.513 18.3597 173.361 20.6393 173.361H198.126C200.406 173.361 202.254 171.513 202.254 169.233C202.254 166.953 200.406 165.105 198.126 165.105Z" fill="#DFE6EC"/>
<path d="M103.192 184.367H20.6393C18.3597 184.367 16.5117 186.215 16.5117 188.495C16.5117 190.774 18.3597 192.622 20.6393 192.622H103.192C105.471 192.622 107.319 190.774 107.319 188.495C107.319 186.215 105.471 184.367 103.192 184.367Z" fill="#DFE6EC"/>
<path d="M229.084 184.367H119.702C117.422 184.367 115.574 186.215 115.574 188.495C115.574 190.774 117.422 192.622 119.702 192.622H229.084C231.363 192.622 233.211 190.774 233.211 188.495C233.211 186.215 231.363 184.367 229.084 184.367Z" fill="#DFE6EC"/>
<path d="M212.573 203.63H20.6393C18.3597 203.63 16.5117 205.478 16.5117 207.757C16.5117 210.037 18.3597 211.885 20.6393 211.885H212.573C214.853 211.885 216.701 210.037 216.701 207.757C216.701 205.478 214.853 203.63 212.573 203.63Z" fill="#DFE6EC"/>
<path d="M191.935 222.892H20.6393C18.3597 222.892 16.5117 224.74 16.5117 227.019C16.5117 229.299 18.3597 231.147 20.6393 231.147H191.935C194.215 231.147 196.063 229.299 196.063 227.019C196.063 224.74 194.215 222.892 191.935 222.892Z" fill="#DFE6EC"/>
<path d="M154.786 242.152H20.6393C18.3597 242.152 16.5117 244 16.5117 246.28C16.5117 248.56 18.3597 250.408 20.6393 250.408H154.786C157.066 250.408 158.914 248.56 158.914 246.28C158.914 244 157.066 242.152 154.786 242.152Z" fill="#DFE6EC"/>
<path d="M230.458 0.6875H27.517C12.6995 0.6875 0.6875 12.6995 0.6875 27.517V531.085C0.6875 545.903 12.6995 557.914 27.517 557.914H230.458C245.276 557.914 257.288 545.903 257.288 531.085V27.517C257.288 12.6995 245.276 0.6875 230.458 0.6875Z" stroke="#94A2AB" stroke-opacity="0.3" stroke-width="1.37587"/>
<path d="M432.458 47H229.517C214.32 47 202 59.32 202 74.5174V578.086C202 593.283 214.32 605.603 229.517 605.603H432.458C447.655 605.603 459.975 593.283 459.975 578.086V74.5174C459.975 59.32 447.655 47 432.458 47Z" fill="white"/>
<path d="M432.46 311.168H229.519C223.44 311.168 218.512 316.096 218.512 322.175V374.458C218.512 380.537 223.44 385.465 229.519 385.465H432.46C438.539 385.465 443.467 380.537 443.467 374.458V322.175C443.467 316.096 438.539 311.168 432.46 311.168Z" fill="#F3F5F8"/>
<path d="M228.425 82.9229L223.074 88.2737L228.425 93.6245" stroke="#94A2AB" stroke-width="2.0638" stroke-linecap="round" stroke-linejoin="round"/>
<path d="M373.987 84.1484H287.995C285.715 84.1484 283.867 85.9964 283.867 88.276C283.867 90.5557 285.715 92.4037 287.995 92.4037H373.987C376.266 92.4037 378.114 90.5557 378.114 88.276C378.114 85.9964 376.266 84.1484 373.987 84.1484Z" fill="#94A2AB"/>
<path d="M430.399 89.6502C431.159 89.6502 431.775 89.0342 431.775 88.2743C431.775 87.5144 431.159 86.8984 430.399 86.8984C429.639 86.8984 429.023 87.5144 429.023 88.2743C429.023 89.0342 429.639 89.6502 430.399 89.6502Z" fill="#94A2AB"/>
<path d="M435.216 89.6502C435.976 89.6502 436.592 89.0342 436.592 88.2743C436.592 87.5144 435.976 86.8984 435.216 86.8984C434.456 86.8984 433.84 87.5144 433.84 88.2743C433.84 89.0342 434.456 89.6502 435.216 89.6502Z" fill="#94A2AB"/>
<path d="M440.032 89.6502C440.792 89.6502 441.408 89.0342 441.408 88.2743C441.408 87.5144 440.792 86.8984 440.032 86.8984C439.272 86.8984 438.656 87.5144 438.656 88.2743C438.656 89.0342 439.272 89.6502 440.032 89.6502Z" fill="#94A2AB"/>
<path d="M432.46 220.359H229.519C223.44 220.359 218.512 225.287 218.512 231.366V283.649C218.512 289.728 223.44 294.656 229.519 294.656H432.46C438.539 294.656 443.467 289.728 443.467 283.649V231.366C443.467 225.287 438.539 220.359 432.46 220.359Z" fill="#F3F5F8"/>
<path d="M381.553 243.062H241.215C237.795 243.062 235.023 245.834 235.023 249.253C235.023 252.672 237.795 255.444 241.215 255.444H381.553C384.972 255.444 387.744 252.672 387.744 249.253C387.744 245.834 384.972 243.062 381.553 243.062Z" fill="#94A2AB"/>
<path d="M318.951 263.699H239.151C236.871 263.699 235.023 265.547 235.023 267.827C235.023 270.106 236.871 271.954 239.151 271.954H318.951C321.231 271.954 323.079 270.106 323.079 267.827C323.079 265.547 321.231 263.699 318.951 263.699Z" fill="#DFE6EC"/>
<path d="M432.46 129.551H229.519C223.44 129.551 218.512 134.479 218.512 140.558V192.841C218.512 198.92 223.44 203.848 229.519 203.848H432.46C438.539 203.848 443.467 198.92 443.467 192.841V140.558C443.467 134.479 438.539 129.551 432.46 129.551Z" fill="#FE6C66"/>
<path d="M381.553 152.254H241.215C237.795 152.254 235.023 155.026 235.023 158.445C235.023 161.865 237.795 164.637 241.215 164.637H381.553C384.972 164.637 387.744 161.865 387.744 158.445C387.744 155.026 384.972 152.254 381.553 152.254Z" fill="#FFAEAB"/>
<path d="M318.951 172.891H239.151C236.871 172.891 235.023 174.739 235.023 177.018C235.023 179.298 236.871 181.146 239.151 181.146H318.951C321.231 181.146 323.079 179.298 323.079 177.018C323.079 174.739 321.231 172.891 318.951 172.891Z" fill="#FFAEAB"/>
<path d="M432.458 47.6875H229.517C214.699 47.6875 202.688 59.6995 202.688 74.517V578.085C202.688 592.902 214.699 604.914 229.517 604.914H432.458C447.276 604.914 459.287 592.902 459.287 578.085V74.517C459.287 59.6995 447.276 47.6875 432.458 47.6875Z" stroke="#94A2AB" stroke-opacity="0.3" stroke-width="1.37587"/>
</g>
<defs>
<clipPath id="clip0_959_2628">
<rect width="460" height="327" fill="white"/>
</clipPath>
</defs>
</svg>
