<svg width="460" height="312" viewBox="0 0 460 312" fill="none" xmlns="http://www.w3.org/2000/svg">
<g clip-path="url(#clip0_959_2676)">
<path d="M498 -57H-39C-52.2548 -57 -63 -46.2548 -63 -33V303C-63 316.255 -52.2548 327 -39 327H498C511.255 327 522 316.255 522 303V-33C522 -46.2548 511.255 -57 498 -57Z" fill="white"/>
<path d="M230.458 0H27.5174C12.32 0 0 12.32 0 27.5174V531.086C0 546.283 12.32 558.603 27.5174 558.603H230.458C245.655 558.603 257.975 546.283 257.975 531.086V27.5174C257.975 12.32 245.655 0 230.458 0Z" fill="white"/>
<path d="M26.4173 35.9229L21.0664 41.2737L26.4173 46.6245" stroke="#94A2AB" stroke-width="2.0638" stroke-linecap="round" stroke-linejoin="round"/>
<path d="M171.983 37.1484H85.9909C83.7113 37.1484 81.8633 38.9964 81.8633 41.276C81.8633 43.5557 83.7113 45.4037 85.9909 45.4037H171.983C174.262 45.4037 176.11 43.5557 176.11 41.276C176.11 38.9964 174.262 37.1484 171.983 37.1484Z" fill="#94A2AB"/>
<path d="M230.46 82.5508H27.5187C21.4397 82.5508 16.5117 87.4788 16.5117 93.5578V205.003C16.5117 211.082 21.4397 216.01 27.5187 216.01H230.46C236.539 216.01 241.467 211.082 241.467 205.003V93.5578C241.467 87.4788 236.539 82.5508 230.46 82.5508Z" fill="#F3F5F8"/>
<path d="M128.988 107.316H128.988C118.73 107.316 110.414 115.632 110.414 125.891V125.891C110.414 136.149 118.73 144.465 128.988 144.465H128.988C139.247 144.465 147.563 136.149 147.563 125.891V125.891C147.563 115.632 139.247 107.316 128.988 107.316Z" fill="white"/>
<path fill-rule="evenodd" clip-rule="evenodd" d="M125.894 116.087C124.469 116.087 123.314 117.242 123.314 118.666C123.314 120.091 124.469 121.246 125.894 121.246C127.319 121.246 128.474 120.091 128.474 118.666C128.474 117.242 127.319 116.087 125.894 116.087ZM122.282 118.666C122.282 116.672 123.899 115.055 125.894 115.055C127.888 115.055 129.505 116.672 129.505 118.666C129.505 120.661 127.888 122.278 125.894 122.278C123.899 122.278 122.282 120.661 122.282 118.666ZM133.737 123.222C133.549 122.929 133.131 122.903 132.907 123.17L127.616 129.496C127.524 129.606 127.39 129.673 127.247 129.68C127.103 129.687 126.963 129.635 126.861 129.534L123.328 126.094C123.097 125.869 122.718 125.909 122.539 126.177L118.106 132.827C117.877 133.17 118.123 133.629 118.535 133.629H139.482C139.89 133.629 140.137 133.177 139.916 132.834L133.737 123.222ZM132.116 122.508C132.786 121.707 134.04 121.785 134.605 122.664L140.784 132.276C141.446 133.306 140.707 134.661 139.482 134.661H118.535C117.299 134.661 116.561 133.283 117.247 132.254L121.68 125.605C122.217 124.799 123.354 124.679 124.048 125.355L127.182 128.407L132.116 122.508Z" fill="#94A2AB"/>
<path d="M198.815 155.473H59.1641C55.7446 155.473 52.9727 158.245 52.9727 161.664C52.9727 165.083 55.7446 167.855 59.1641 167.855H198.815C202.235 167.855 205.007 165.083 205.007 161.664C205.007 158.245 202.235 155.473 198.815 155.473Z" fill="#94A2AB"/>
<path d="M180.24 178.863H77.7383C74.3189 178.863 71.5469 181.635 71.5469 185.055C71.5469 188.474 74.3189 191.246 77.7383 191.246H180.24C183.66 191.246 186.432 188.474 186.432 185.055C186.432 181.635 183.66 178.863 180.24 178.863Z" fill="#DFE6EC"/>
<path d="M230.46 235.273H27.5187C21.4397 235.273 16.5117 240.201 16.5117 246.28V357.725C16.5117 363.804 21.4397 368.732 27.5187 368.732H230.46C236.539 368.732 241.467 363.804 241.467 357.725V246.28C241.467 240.201 236.539 235.273 230.46 235.273Z" fill="#F3F5F8"/>
<path d="M128.988 260.039H128.988C118.73 260.039 110.414 268.355 110.414 278.613V278.613C110.414 288.872 118.73 297.188 128.988 297.188H128.988C139.247 297.188 147.563 288.872 147.563 278.613V278.613C147.563 268.355 139.247 260.039 128.988 260.039Z" fill="white"/>
<path fill-rule="evenodd" clip-rule="evenodd" d="M125.894 268.809C124.469 268.809 123.314 269.964 123.314 271.389C123.314 272.814 124.469 273.969 125.894 273.969C127.319 273.969 128.474 272.814 128.474 271.389C128.474 269.964 127.319 268.809 125.894 268.809ZM122.282 271.389C122.282 269.394 123.899 267.777 125.894 267.777C127.888 267.777 129.505 269.394 129.505 271.389C129.505 273.384 127.888 275.001 125.894 275.001C123.899 275.001 122.282 273.384 122.282 271.389ZM133.737 275.944C133.549 275.652 133.131 275.625 132.907 275.892L127.616 282.218C127.524 282.329 127.39 282.395 127.247 282.403C127.103 282.41 126.963 282.357 126.861 282.257L123.328 278.816C123.097 278.591 122.718 278.631 122.539 278.9L118.106 285.549C117.877 285.892 118.123 286.352 118.535 286.352H139.482C139.89 286.352 140.137 285.9 139.916 285.557L133.737 275.944ZM132.116 275.23C132.786 274.429 134.04 274.508 134.605 275.386L140.784 284.999C141.446 286.029 140.707 287.383 139.482 287.383H118.535C117.299 287.383 116.561 286.006 117.247 284.977L121.68 278.328C122.217 277.522 123.354 277.402 124.048 278.077L127.182 281.129L132.116 275.23Z" fill="#94A2AB"/>
<path d="M198.815 308.195H59.1641C55.7446 308.195 52.9727 310.967 52.9727 314.387C52.9727 317.806 55.7446 320.578 59.1641 320.578H198.815C202.235 320.578 205.007 317.806 205.007 314.387C205.007 310.967 202.235 308.195 198.815 308.195Z" fill="#94A2AB"/>
<path d="M230.458 0.6875H27.517C12.6995 0.6875 0.6875 12.6995 0.6875 27.517V531.085C0.6875 545.903 12.6995 557.914 27.517 557.914H230.458C245.276 557.914 257.288 545.903 257.288 531.085V27.517C257.288 12.6995 245.276 0.6875 230.458 0.6875Z" stroke="#94A2AB" stroke-opacity="0.3" stroke-width="1.37587"/>
<path d="M432.458 47H229.517C214.32 47 202 59.32 202 74.5174V578.086C202 593.283 214.32 605.603 229.517 605.603H432.458C447.655 605.603 459.975 593.283 459.975 578.086V74.5174C459.975 59.32 447.655 47 432.458 47Z" fill="white"/>
<path d="M432.464 129.555H229.523C223.444 129.555 218.516 134.483 218.516 140.562V192.845C218.516 198.924 223.444 203.852 229.523 203.852H432.464C438.543 203.852 443.471 198.924 443.471 192.845V140.562C443.471 134.483 438.543 129.555 432.464 129.555Z" fill="#F3F5F8"/>
<path d="M292.126 152.258H241.219C237.799 152.258 235.027 155.03 235.027 158.449C235.027 161.869 237.799 164.641 241.219 164.641H292.126C295.545 164.641 298.317 161.869 298.317 158.449C298.317 155.03 295.545 152.258 292.126 152.258Z" fill="#2CC1FF"/>
<path fill-rule="evenodd" clip-rule="evenodd" d="M312.077 162.576C312.077 163.715 311.153 164.639 310.013 164.639C308.873 164.639 307.949 163.715 307.949 162.576C307.949 161.436 308.873 160.512 310.013 160.512C311.153 160.512 312.077 161.436 312.077 162.576ZM305.198 162.576C305.198 163.716 304.274 164.64 303.134 164.64C301.994 164.64 301.07 163.716 301.07 162.576C301.07 161.437 301.994 160.513 303.134 160.513C304.274 160.513 305.198 161.437 305.198 162.576ZM316.892 164.639C318.032 164.639 318.956 163.715 318.956 162.576C318.956 161.436 318.032 160.512 316.892 160.512C315.752 160.512 314.828 161.436 314.828 162.576C314.828 163.715 315.752 164.639 316.892 164.639Z" fill="#DFE6EC"/>
<path d="M318.955 172.895H239.155C236.875 172.895 235.027 174.743 235.027 177.022C235.027 179.302 236.875 181.15 239.155 181.15H318.955C321.235 181.15 323.083 179.302 323.083 177.022C323.083 174.743 321.235 172.895 318.955 172.895Z" fill="#DFE6EC"/>
<path d="M356.79 146.066H356.79C345.392 146.066 336.152 155.306 336.152 166.704V166.705C336.152 178.103 345.392 187.343 356.79 187.343H356.79C368.188 187.343 377.428 178.103 377.428 166.705V166.704C377.428 155.306 368.188 146.066 356.79 146.066Z" fill="#2CC1FF"/>
<path d="M349.764 169.193L360.68 158.277L365.22 162.817L354.304 173.733L348.629 174.868L349.764 169.193Z" stroke="white" stroke-width="2.0638" stroke-linecap="round" stroke-linejoin="round"/>
<path d="M426.272 166.704C426.272 155.686 417.34 146.754 406.322 146.754C395.304 146.754 386.372 155.686 386.372 166.704C386.372 177.722 395.304 186.654 406.322 186.654C417.34 186.654 426.272 177.722 426.272 166.704Z" fill="#F3F5F8"/>
<path d="M411.164 171.531L401.516 161.883M401.516 171.531L411.164 161.883L401.516 171.531Z" stroke="#94A2AB" stroke-width="2.0638" stroke-linecap="round" stroke-linejoin="round"/>
<path d="M426.272 166.704C426.272 155.686 417.34 146.754 406.322 146.754C395.304 146.754 386.372 155.686 386.372 166.704C386.372 177.722 395.304 186.654 406.322 186.654C417.34 186.654 426.272 177.722 426.272 166.704Z" stroke="#94A2AB" stroke-width="1.37587"/>
<path d="M432.464 225.867H229.523C223.444 225.867 218.516 230.795 218.516 236.874V289.157C218.516 295.236 223.444 300.164 229.523 300.164H432.464C438.543 300.164 443.471 295.236 443.471 289.157V236.874C443.471 230.795 438.543 225.867 432.464 225.867Z" fill="#F3F5F8"/>
<path d="M292.126 248.57H241.219C237.799 248.57 235.027 251.342 235.027 254.762C235.027 258.181 237.799 260.953 241.219 260.953H292.126C295.545 260.953 298.317 258.181 298.317 254.762C298.317 251.342 295.545 248.57 292.126 248.57Z" fill="#94A2AB"/>
<path fill-rule="evenodd" clip-rule="evenodd" d="M312.077 258.888C312.077 260.028 311.153 260.952 310.013 260.952C308.873 260.952 307.949 260.028 307.949 258.888C307.949 257.748 308.873 256.824 310.013 256.824C311.153 256.824 312.077 257.748 312.077 258.888ZM305.198 258.889C305.198 260.029 304.274 260.953 303.134 260.953C301.994 260.953 301.07 260.029 301.07 258.889C301.07 257.749 301.994 256.825 303.134 256.825C304.274 256.825 305.198 257.749 305.198 258.889ZM316.892 260.952C318.032 260.952 318.956 260.028 318.956 258.888C318.956 257.748 318.032 256.824 316.892 256.824C315.752 256.824 314.828 257.748 314.828 258.888C314.828 260.028 315.752 260.952 316.892 260.952Z" fill="#DFE6EC"/>
<path d="M318.955 269.207H239.155C236.875 269.207 235.027 271.055 235.027 273.335C235.027 275.614 236.875 277.462 239.155 277.462H318.955C321.235 277.462 323.083 275.614 323.083 273.335C323.083 271.055 321.235 269.207 318.955 269.207Z" fill="#DFE6EC"/>
<path d="M356.79 242.379H356.79C345.392 242.379 336.152 251.619 336.152 263.017V263.017C336.152 274.415 345.392 283.655 356.79 283.655H356.79C368.188 283.655 377.428 274.415 377.428 263.017V263.017C377.428 251.619 368.188 242.379 356.79 242.379Z" fill="#94A2AB"/>
<path d="M349.764 265.505L360.68 254.59L365.22 259.13L354.304 270.045L348.629 271.18L349.764 265.505Z" stroke="white" stroke-width="2.0638" stroke-linecap="round" stroke-linejoin="round"/>
<path d="M426.272 263.017C426.272 251.999 417.34 243.067 406.322 243.067C395.304 243.067 386.372 251.999 386.372 263.017C386.372 274.036 395.304 282.968 406.322 282.968C417.34 282.968 426.272 274.036 426.272 263.017Z" fill="#F3F5F8"/>
<path d="M411.164 267.843L401.516 258.196M401.516 267.843L411.164 258.196L401.516 267.843Z" stroke="#94A2AB" stroke-width="2.0638" stroke-linecap="round" stroke-linejoin="round"/>
<path d="M426.272 263.017C426.272 251.999 417.34 243.067 406.322 243.067C395.304 243.067 386.372 251.999 386.372 263.017C386.372 274.036 395.304 282.968 406.322 282.968C417.34 282.968 426.272 274.036 426.272 263.017Z" stroke="#94A2AB" stroke-width="1.37587"/>
<path d="M221.262 93.092H232.269M221.262 83.4609H232.269H221.262ZM221.262 88.2765H232.269H221.262Z" stroke="#94A2AB" stroke-width="2.0638" stroke-linecap="round" stroke-linejoin="round"/>
<path d="M310.693 84.1484H250.155C247.875 84.1484 246.027 85.9964 246.027 88.276C246.027 90.5557 247.875 92.4037 250.155 92.4037H310.693C312.973 92.4037 314.821 90.5557 314.821 88.276C314.821 85.9964 312.973 84.1484 310.693 84.1484Z" fill="#94A2AB"/>
<path d="M407.696 95.4974C411.685 95.4974 414.919 92.2634 414.919 88.2741C414.919 84.2848 411.685 81.0508 407.696 81.0508C403.707 81.0508 400.473 84.2848 400.473 88.2741C400.473 92.2634 403.707 95.4974 407.696 95.4974Z" stroke="#94A2AB" stroke-width="2.0638"/>
<path d="M435.204 95.4974C439.193 95.4974 442.427 92.2634 442.427 88.2741C442.427 84.2848 439.193 81.0508 435.204 81.0508C431.214 81.0508 427.98 84.2848 427.98 88.2741C427.98 92.2634 431.214 95.4974 435.204 95.4974Z" stroke="#94A2AB" stroke-width="2.0638"/>
<path d="M432.458 47.6875H229.517C214.699 47.6875 202.688 59.6995 202.688 74.517V578.085C202.688 592.902 214.699 604.914 229.517 604.914H432.458C447.276 604.914 459.287 592.902 459.287 578.085V74.517C459.287 59.6995 447.276 47.6875 432.458 47.6875Z" stroke="#94A2AB" stroke-opacity="0.3" stroke-width="1.37587"/>
</g>
<defs>
<clipPath id="clip0_959_2676">
<rect width="460" height="327" fill="white"/>
</clipPath>
</defs>
</svg>
